<?xml version="1.0" encoding="utf-8"?>
<!-- Generator: Adobe Illustrator 17.1.0, SVG Export Plug-In . SVG Version: 6.00 Build 0)  -->
<!DOCTYPE svg PUBLIC "-//W3C//DTD SVG 1.1//EN" "http://www.w3.org/Graphics/SVG/1.1/DTD/svg11.dtd">
<svg version="1.1" id="Layer_1" xmlns="http://www.w3.org/2000/svg" xmlns:xlink="http://www.w3.org/1999/xlink" x="0px" y="0px"
	 viewBox="0 0 210.785 36.81" enable-background="new 0 0 210.785 36.81" xml:space="preserve">
<path fill="#0084A9" d="M53.879,31.726c0.052,1.961,0.377,2.613,0.88,2.789c0.428,0.151,0.907,0.177,1.308,0.177
	c0.275,0,0.426,0.049,0.426,0.202c0,0.201-0.225,0.25-0.577,0.25c-1.635,0-2.641-0.074-3.117-0.074
	c-0.227,0-1.409,0.074-2.715,0.074c-0.327,0-0.556-0.025-0.556-0.25c0-0.153,0.153-0.202,0.405-0.202
	c0.325,0,0.778-0.025,1.131-0.124c0.653-0.201,0.754-0.932,0.778-3.118l0.227-14.881c0-0.5,0.074-0.854,0.327-0.854
	c0.276,0,0.502,0.325,0.929,0.78c0.302,0.325,4.125,4.423,7.793,8.067c1.708,1.71,5.104,5.33,5.53,5.731h0.124l-0.251-11.285
	c-0.024-1.532-0.252-2.01-0.854-2.263c-0.376-0.151-0.981-0.151-1.333-0.151c-0.301,0-0.402-0.076-0.402-0.227
	c0-0.2,0.277-0.224,0.653-0.224c1.309,0,2.514,0.073,3.041,0.073c0.277,0,1.232-0.073,2.464-0.073c0.327,0,0.579,0.024,0.579,0.224
	c0,0.151-0.15,0.227-0.452,0.227c-0.251,0-0.453,0-0.753,0.077c-0.706,0.202-0.907,0.729-0.931,2.133l-0.275,15.862
	c0,0.553-0.101,0.779-0.328,0.779c-0.277,0-0.579-0.276-0.856-0.552c-1.582-1.511-4.8-4.802-7.413-7.392
	c-2.743-2.715-5.531-5.857-5.983-6.334h-0.076L53.879,31.726"/>
<path fill="#0084A9" d="M92.466,26.122c0-5.633-3.244-9.123-7.366-9.123c-2.892,0-6.185,1.605-6.185,7.868
	c0,5.226,2.891,9.372,7.718,9.372C88.394,34.238,92.466,33.383,92.466,26.122 M75.448,25.641c0-4.296,2.841-9.852,10.381-9.852
	c6.258,0,10.155,3.646,10.155,9.402c0,5.755-4.021,10.305-10.407,10.305C78.364,35.496,75.448,30.092,75.448,25.641z"/>
<path fill="#0084A9" d="M101.291,18.603c-0.577-1.382-1.005-1.656-1.91-1.909c-0.377-0.1-0.78-0.1-0.981-0.1
	c-0.226,0-0.3-0.076-0.3-0.227c0-0.2,0.275-0.224,0.652-0.224c1.332,0,2.765,0.073,3.646,0.073c0.629,0,1.833-0.073,3.091-0.073
	c0.302,0,0.578,0.049,0.578,0.224c0,0.178-0.149,0.227-0.377,0.227c-0.399,0-0.777,0.025-0.98,0.176
	c-0.175,0.124-0.25,0.3-0.25,0.527c0,0.327,0.225,1.031,0.575,1.935l4.326,11.415h0.1c1.081-2.768,4.349-10.862,4.95-12.52
	c0.126-0.329,0.227-0.705,0.227-0.931c0-0.2-0.101-0.403-0.327-0.48c-0.302-0.098-0.678-0.124-1.007-0.124
	c-0.222,0-0.426-0.025-0.426-0.202c0-0.2,0.226-0.249,0.706-0.249c1.254,0,2.312,0.073,2.639,0.073c0.427,0,1.608-0.073,2.362-0.073
	c0.327,0,0.527,0.049,0.527,0.224c0,0.178-0.153,0.227-0.403,0.227c-0.251,0-0.778,0-1.232,0.3
	c-0.327,0.227-0.702,0.656-1.382,2.263c-0.979,2.364-1.657,3.721-3.013,6.815c-1.612,3.669-2.792,6.408-3.344,7.664
	c-0.654,1.459-0.808,1.859-1.156,1.859c-0.327,0-0.479-0.351-0.956-1.532L101.291,18.603"/>
<path fill="#0084A9" d="M129.678,27.326c0.125,0,0.15-0.074,0.125-0.148l-2.261-6.208c-0.027-0.104-0.051-0.229-0.127-0.229
	s-0.126,0.126-0.153,0.229l-2.31,6.183c-0.027,0.1,0,0.174,0.1,0.174H129.678 M124.547,28.583c-0.124,0-0.175,0.053-0.222,0.202
	l-1.359,3.595c-0.253,0.625-0.378,1.231-0.378,1.533c0,0.453,0.229,0.778,1.007,0.778h0.376c0.3,0,0.378,0.049,0.378,0.202
	c0,0.201-0.152,0.25-0.427,0.25c-0.806,0-1.887-0.074-2.666-0.074c-0.274,0-1.657,0.074-2.964,0.074c-0.329,0-0.48-0.049-0.48-0.25
	c0-0.153,0.102-0.202,0.302-0.202c0.229,0,0.578-0.025,0.779-0.049c1.158-0.153,1.636-1.007,2.136-2.263l6.311-15.786
	c0.301-0.728,0.454-1.007,0.706-1.007c0.224,0,0.373,0.228,0.626,0.805c0.605,1.385,4.625,11.642,6.233,15.458
	c0.958,2.259,1.685,2.613,2.214,2.739c0.376,0.076,0.754,0.101,1.056,0.101c0.2,0,0.327,0.025,0.327,0.202
	c0,0.201-0.23,0.25-1.156,0.25c-0.906,0-2.74,0-4.754-0.049c-0.451-0.025-0.753-0.025-0.753-0.201c0-0.153,0.102-0.202,0.352-0.228
	c0.179-0.051,0.352-0.276,0.226-0.578l-2.012-5.326c-0.049-0.126-0.122-0.179-0.247-0.179H124.547z"/>
<path fill="#0084A9" d="M147.391,25.416c0,0.278,0.049,0.379,0.224,0.453c0.528,0.178,1.284,0.253,1.911,0.253
	c1.004,0,1.333-0.104,1.785-0.428c0.751-0.553,1.481-1.708,1.481-3.771c0-3.571-2.359-4.598-3.846-4.598
	c-0.629,0-1.08,0.021-1.332,0.098c-0.175,0.053-0.224,0.152-0.224,0.354V25.416 M144.426,23.428c0-3.818,0-4.522-0.051-5.325
	c-0.052-0.853-0.253-1.258-1.084-1.432c-0.199-0.051-0.628-0.077-0.98-0.077c-0.276,0-0.427-0.049-0.427-0.227
	c0-0.174,0.178-0.224,0.553-0.224c1.334,0,2.915,0.073,3.443,0.073c0.857,0,2.765-0.073,3.546-0.073
	c1.581,0,3.268,0.149,4.623,1.078c0.706,0.48,1.709,1.76,1.709,3.446c0,1.858-0.78,3.569-3.318,5.626
	c2.238,2.821,3.973,5.057,5.457,6.613c1.407,1.46,2.436,1.636,2.813,1.709c0.278,0.051,0.504,0.076,0.705,0.076
	c0.198,0,0.3,0.076,0.3,0.202c0,0.201-0.178,0.25-0.475,0.25h-2.39c-1.406,0-2.035-0.123-2.689-0.478
	c-1.079-0.578-2.035-1.76-3.444-3.694c-1.005-1.384-2.16-3.092-2.487-3.47c-0.128-0.151-0.276-0.177-0.453-0.177l-2.186-0.049
	c-0.126,0-0.2,0.049-0.2,0.2v0.353c0,2.337,0,4.321,0.123,5.381c0.077,0.73,0.228,1.279,0.981,1.38
	c0.378,0.053,0.931,0.101,1.229,0.101c0.204,0,0.306,0.076,0.306,0.202c0,0.176-0.178,0.25-0.504,0.25
	c-1.457,0-3.318-0.074-3.696-0.074c-0.478,0-2.059,0.074-3.065,0.074c-0.327,0-0.502-0.074-0.502-0.25
	c0-0.126,0.099-0.202,0.4-0.202c0.378,0,0.68-0.049,0.906-0.101c0.504-0.101,0.627-0.65,0.729-1.38
	c0.128-1.06,0.128-3.044,0.128-5.355V23.428z"/>
<path fill="#0084A9" d="M169.768,17.55l-3.749,0.1c-1.457,0.051-2.056,0.176-2.436,0.727c-0.252,0.378-0.378,0.68-0.429,0.881
	c-0.051,0.2-0.127,0.304-0.276,0.304c-0.174,0-0.224-0.127-0.224-0.405c0-0.401,0.479-2.686,0.527-2.888
	c0.074-0.327,0.149-0.48,0.302-0.48c0.198,0,0.452,0.251,1.078,0.304c0.729,0.075,1.686,0.124,2.517,0.124h9.95
	c1.61,0,2.214-0.251,2.413-0.251c0.179,0,0.202,0.149,0.202,0.529c0,0.527-0.074,2.261-0.074,2.917
	c-0.024,0.251-0.073,0.399-0.226,0.399c-0.202,0-0.253-0.125-0.278-0.503l-0.023-0.274c-0.051-0.656-0.729-1.358-2.968-1.409
	l-3.168-0.075v10.305c0,2.311,0,4.296,0.129,5.379c0.077,0.706,0.226,1.256,0.979,1.357c0.352,0.053,0.905,0.101,1.281,0.101
	c0.275,0,0.402,0.076,0.402,0.202c0,0.176-0.2,0.25-0.479,0.25c-1.657,0-3.24-0.074-3.945-0.074c-0.578,0-2.163,0.074-3.166,0.074
	c-0.329,0-0.501-0.074-0.501-0.25c0-0.126,0.096-0.202,0.399-0.202c0.378,0,0.68-0.049,0.905-0.101
	c0.501-0.101,0.654-0.65,0.729-1.38c0.127-1.06,0.127-3.044,0.127-5.355V17.55"/>
<path fill="#0084A9" d="M187.939,23.428c0-3.818,0-4.522-0.05-5.325c-0.051-0.853-0.302-1.283-0.854-1.409
	c-0.278-0.075-0.607-0.1-0.905-0.1c-0.255,0-0.403-0.049-0.403-0.25c0-0.151,0.203-0.2,0.604-0.2c0.955,0,2.537,0.073,3.268,0.073
	c0.629,0,2.111-0.073,3.065-0.073c0.329,0,0.531,0.049,0.531,0.2c0,0.202-0.153,0.25-0.405,0.25c-0.251,0-0.451,0.025-0.751,0.077
	c-0.682,0.124-0.882,0.55-0.933,1.432c-0.051,0.803-0.051,1.507-0.051,5.325v4.427c0,2.438,0,4.424,0.102,5.507
	c0.077,0.676,0.251,1.128,1.004,1.229c0.352,0.053,0.904,0.101,1.283,0.101c0.275,0,0.403,0.076,0.403,0.202
	c0,0.176-0.2,0.25-0.479,0.25c-1.659,0-3.244-0.074-3.924-0.074c-0.577,0-2.159,0.074-3.162,0.074c-0.331,0-0.505-0.074-0.505-0.25
	c0-0.126,0.098-0.202,0.399-0.202c0.378,0,0.684-0.049,0.907-0.101c0.503-0.101,0.652-0.525,0.729-1.254
	c0.126-1.058,0.126-3.043,0.126-5.481V23.428"/>
<path fill="#0084A9" d="M187.939,23.428c0-3.818,0-4.522-0.05-5.325c-0.051-0.853-0.302-1.283-0.854-1.409
	c-0.278-0.075-0.607-0.1-0.905-0.1c-0.255,0-0.403-0.049-0.403-0.25c0-0.151,0.203-0.2,0.604-0.2c0.955,0,2.537,0.073,3.268,0.073
	c0.629,0,2.111-0.073,3.065-0.073c0.329,0,0.531,0.049,0.531,0.2c0,0.202-0.153,0.25-0.405,0.25c-0.251,0-0.451,0.025-0.751,0.077
	c-0.682,0.124-0.882,0.55-0.933,1.432c-0.051,0.803-0.051,1.507-0.051,5.325v4.427c0,2.438,0,4.424,0.102,5.507
	c0.077,0.676,0.251,1.128,1.004,1.229c0.352,0.053,0.904,0.101,1.283,0.101c0.275,0,0.403,0.076,0.403,0.202
	c0,0.176-0.2,0.25-0.479,0.25c-1.659,0-3.244-0.074-3.924-0.074c-0.577,0-2.159,0.074-3.162,0.074c-0.331,0-0.505-0.074-0.505-0.25
	c0-0.126,0.098-0.202,0.399-0.202c0.378,0,0.684-0.049,0.907-0.101c0.503-0.101,0.652-0.525,0.729-1.254
	c0.126-1.058,0.126-3.043,0.126-5.481V23.428"/>
<g>
	<path fill="#F15D22" d="M15.338,36.809C1.391,35.743-2.849,27.722,1.823,18.695C4.339,13.834,8.183,8.602,3.602,3.767
		c-0.125-0.158-0.021-0.258,0.171-0.17c10.433,4.156,5.004,12.554,3.223,16.031c-3.511,6.857-1.271,15.185,8.342,16.977
		C15.549,36.649,15.533,36.828,15.338,36.809"/>
</g>
<path fill="#0084A9" d="M17.2,29.162l2.357-29.156L14.029,0l2.976,29.162C17.019,29.349,17.185,29.343,17.2,29.162"/>
<path fill="#FBB034" d="M23.512,14.484c3.445,2.71,9.062,17.774-4.648,22.114c-0.224,0.057-0.205,0.224,0.002,0.205
	c21.809-2.728,14.314-18.375,4.83-22.502C23.444,14.179,23.325,14.339,23.512,14.484"/>
<path fill="#0084A9" d="M200.752,34.843c-0.399-0.175-0.476-0.299-0.476-0.851c0-1.384,0.102-2.894,0.125-3.297
	c0.027-0.376,0.1-0.652,0.302-0.652c0.226,0,0.253,0.229,0.253,0.425c0,0.329,0.098,0.856,0.224,1.285
	c0.554,1.859,2.037,2.539,3.597,2.539c2.261,0,3.367-1.532,3.367-2.866c0-1.233-0.378-2.414-2.465-4.021l-1.157-0.906
	c-2.763-2.163-3.719-3.92-3.719-5.958c0-2.762,2.312-4.75,5.807-4.75c1.634,0,2.689,0.251,3.343,0.427
	c0.229,0.053,0.355,0.127,0.355,0.302c0,0.327-0.101,1.058-0.101,3.017c0,0.553-0.076,0.755-0.278,0.755
	c-0.176,0-0.252-0.151-0.252-0.453c0-0.227-0.124-1.005-0.65-1.659c-0.379-0.476-1.109-1.23-2.743-1.23
	c-1.859,0-2.989,1.082-2.989,2.588c0,1.154,0.578,2.034,2.664,3.622l0.702,0.525c3.017,2.335,4.125,4.022,4.125,6.41
	c0,1.455-0.555,3.193-2.366,4.372c-1.258,0.808-2.661,1.031-3.995,1.031C202.964,35.497,201.835,35.322,200.752,34.843"/>
</svg>
