<?xml version="1.0" encoding="UTF-8"?>
<svg width="70px" height="70px" viewBox="0 0 70 70" version="1.1" xmlns="http://www.w3.org/2000/svg" xmlns:xlink="http://www.w3.org/1999/xlink">
    <!-- Generator: Sketch 50 (54983) - http://www.bohemiancoding.com/sketch -->
    <title>curated</title>
    <desc>Created with Sketch.</desc>
    <defs></defs>
    <g id="curated" stroke="none" stroke-width="1" fill="none" fill-rule="evenodd">
        <g id="Group" transform="translate(1.000000, 10.000000)">
            <g id="Group-3" transform="translate(12.773176, 33.783584) rotate(-20.000000) translate(-12.773176, -33.783584) translate(5.773176, 18.283584)" stroke="#6BC2E3" stroke-width="2">
                <path d="M14,30 L14,20 L9.95546918,13.5287507 C9.44307026,12.7089124 8.36307862,12.4596836 7.54324035,12.9720825 C7.52869086,12.9811759 7.51427586,12.9904828 7.5,13 L7.5,13 C6.61438823,13.5904078 6.23350345,14.7005104 6.57008771,15.7102631 L8,20" id="Path-2"></path>
                <path d="M5.5,30.5 L4.5,25 L0.5,15 L3.65445405,1.48091121 C3.84877237,0.648118407 4.65647259,0.109412098 5.5,0.25 L5.5,0.25 C6.37407166,0.39567861 7.02641717,1.13401212 7.06330718,2.0193723 L7.5,12.5" id="Path-5"></path>
            </g>
            <path d="M55.0729873,46.9258326 L55.0729873,36.9258326 L51.0284565,30.4545833 C50.5160576,29.634745 49.436066,29.3855162 48.6162277,29.8979151 C48.6016782,29.9070085 48.5872632,29.9163154 48.5729873,29.9258326 L48.5729873,29.9258326 C47.6873756,30.5162405 47.3064908,31.626343 47.643075,32.6360957 L49.0729873,36.9258326" id="Path-2" stroke="#6BC2E3" stroke-width="2" transform="translate(51.072987, 37.925833) scale(-1, 1) rotate(-20.000000) translate(-51.072987, -37.925833) "></path>
            <path d="M60.1777589,49.8247209 L59.1777589,44.3247209 L55.1777589,34.3247209 L58.3322129,20.8056321 C58.5265313,19.9728393 59.3342315,19.434133 60.1777589,19.5747209 L60.1777589,19.5747209 C61.0518305,19.7203995 61.7041761,20.458733 61.7410661,21.3440932 L62.1777589,31.8247209" id="Path-5" stroke="#6BC2E3" stroke-width="2" transform="translate(58.677759, 34.574721) scale(-1, 1) rotate(-20.000000) translate(-58.677759, -34.574721) "></path>
            <path d="M44.8654,16.0537778 C44.4585,16.5444444 44.0386,17.0504444 43.8436,17.6395 C43.6408,18.2528333 43.6759,18.9236667 43.7084,19.5727778 C43.7435,20.2653333 43.7773,20.9195556 43.5069,21.285 C43.2313,21.6581111 42.5826,21.8293333 41.8962,22.0095 C41.2618,22.1768889 40.6053,22.3506667 40.0814,22.7263333 C39.564,23.0968889 39.1974,23.6527222 38.8438,24.1906667 C38.4551,24.781 38.0885,25.3381111 37.6322,25.4850556 C37.2331,25.6166667 36.6013,25.3917778 35.9422,25.1451667 C35.3169,24.9100556 34.6708,24.6672778 34,24.6672778 C33.3292,24.6672778 32.6831,24.9100556 32.0578,25.1451667 C31.3987,25.3905 30.7695,25.6153889 30.3665,25.4850556 C29.9102,25.3393889 29.5436,24.781 29.1549,24.1906667 C28.8013,23.6527222 28.4347,23.0968889 27.9173,22.7263333 C27.3934,22.3519444 26.7369,22.1781667 26.1025,22.0107778 C25.4161,21.8293333 24.7674,21.6593889 24.4905,21.2862778 C24.2201,20.9208333 24.2526,20.2653333 24.289,19.5740556 C24.3228,18.9249444 24.3566,18.2553889 24.1538,17.6407778 C23.9601,17.053 23.5389,16.5457222 23.1333,16.0537778 C22.677,15.5030556 22.2467,14.983 22.2467,14.4961667 C22.2467,14.0093333 22.6783,13.4892778 23.1333,12.9372778 C23.5402,12.4466111 23.9601,11.9406111 24.1551,11.3515556 C24.3579,10.7382222 24.3228,10.0673889 24.2903,9.41827778 C24.2552,8.72444444 24.2214,8.0715 24.4918,7.70605556 C24.7674,7.33294444 25.4161,7.16172222 26.1025,6.98155556 C26.7369,6.81416667 27.3934,6.64038889 27.9173,6.26472222 C28.4347,5.89416667 28.8013,5.33833333 29.1549,4.80038889 C29.5436,4.21005556 29.9102,3.65294444 30.3665,3.506 C30.7656,3.37566667 31.3974,3.598 32.0565,3.84588889 C32.6831,4.081 33.3292,4.32377778 34,4.32377778 C34.6708,4.32377778 35.3169,4.081 35.9422,3.84588889 C36.6013,3.59927778 37.2305,3.37694444 37.6335,3.506 C38.0898,3.65166667 38.4564,4.21005556 38.8451,4.80038889 C39.1987,5.33833333 39.5653,5.89416667 40.0827,6.26472222 C40.6066,6.63911111 41.2631,6.81288889 41.8975,6.98027778 C42.5839,7.16172222 43.2326,7.33166667 43.5095,7.70477778 C43.7799,8.07022222 43.7474,8.72572222 43.711,9.417 C43.6772,10.0661111 43.6434,10.7356667 43.8462,11.3502778 C44.0399,11.9380556 44.4611,12.4453333 44.8667,12.9372778 C45.323,13.488 45.7533,14.0080556 45.7533,14.4948889 C45.7533,14.9817222 45.3204,15.5017778 44.8654,16.0537778 Z" id="Shape" stroke="#000000" stroke-width="2" fill-rule="nonzero"></path>
            <path d="M39.85,14.4948889 C39.85,17.6663333 37.2253,20.2448889 34,20.2448889 C30.7747,20.2448889 28.15,17.6650556 28.15,14.4948889 C28.15,11.3247222 30.7747,8.74488889 34,8.74488889" id="Shape" stroke="#000000" stroke-width="2" fill-rule="nonzero"></path>
            <polyline id="Shape" stroke="#000000" stroke-width="2" fill-rule="nonzero" points="38.8315 9.5 34.0852 15.3305 32 13.2809444"></polyline>
            <path d="M26,31 C26,28.790861 24.209139,27 22,27" id="Oval" stroke="#6BC2E3" stroke-width="2"></path>
            <circle id="Oval-3" fill="#6BC2E3" cx="19" cy="27" r="1"></circle>
            <path d="M46,27 C43.790861,27 42,28.790861 42,31" id="Oval-2" stroke="#6BC2E3" stroke-width="2"></path>
            <circle id="Oval-3-Copy" fill="#6BC2E3" cx="49" cy="27" r="1"></circle>
            <rect id="Rectangle-8" fill="#6BC2E3" x="14" y="11" width="2" height="6"></rect>
            <rect id="Rectangle-9" fill="#6BC2E3" x="12" y="13" width="6" height="2"></rect>
            <rect id="Rectangle-8" fill="#6BC2E3" x="50" y="0" width="2" height="6"></rect>
            <rect id="Rectangle-9" fill="#6BC2E3" x="48" y="2" width="6" height="2"></rect>
        </g>
    </g>
</svg>