<?xml version="1.0" encoding="utf-8"?>
<!-- Generator: Adobe Illustrator 17.1.0, SVG Export Plug-In . SVG Version: 6.00 Build 0)  -->
<!DOCTYPE svg PUBLIC "-//W3C//DTD SVG 1.1//EN" "http://www.w3.org/Graphics/SVG/1.1/DTD/svg11.dtd">
<svg version="1.1" xmlns="http://www.w3.org/2000/svg" xmlns:xlink="http://www.w3.org/1999/xlink" x="0px" y="0px"
	 viewBox="0 0 16.073 18.369" enable-background="new 0 0 16.073 18.369" xml:space="preserve">
<g id="Layer_3">
</g>
<g id="Layer_1">
</g>
<g id="Layer_2" fill="#a9a9a9">
	<g>
		<g>
			<path d="M15.058,3.577l-2.564-2.562C11.937,0.456,10.835,0,10.046,0h-8.61C0.646,0,0,0.646,0,1.435v15.499
				c0,0.789,0.646,1.435,1.435,1.435h13.203c0.789,0,1.435-0.646,1.435-1.435V6.027C16.073,5.238,15.616,4.135,15.058,3.577z
				 M14.247,4.389c0.056,0.056,0.112,0.125,0.166,0.203h-2.932V1.66c0.078,0.054,0.147,0.11,0.203,0.166L14.247,4.389z
				 M14.925,16.934c0,0.156-0.131,0.287-0.287,0.287H1.435c-0.156,0-0.287-0.131-0.287-0.287V1.435c0-0.156,0.131-0.287,0.287-0.287
				h8.61c0.087,0,0.184,0.011,0.287,0.03V5.74h4.562c0.02,0.103,0.03,0.2,0.03,0.287V16.934z"/>
			<rect x="3.444" y="9.184" width="9.184" height="1.148"/>
			<rect x="3.444" y="11.481" width="9.184" height="1.148"/>
			<rect x="3.444" y="13.777" width="9.184" height="1.148"/>
		</g>
	</g>
</g>
<g id="orange-links" display="none">
</g>
</svg>
