<?xml version="1.0" encoding="utf-8"?>
<!-- Generator: Adobe Illustrator 17.1.0, SVG Export Plug-In . SVG Version: 6.00 Build 0)  -->
<!DOCTYPE svg PUBLIC "-//W3C//DTD SVG 1.1//EN" "http://www.w3.org/Graphics/SVG/1.1/DTD/svg11.dtd">
<svg version="1.1" xmlns="http://www.w3.org/2000/svg" xmlns:xlink="http://www.w3.org/1999/xlink" x="0px" y="0px"
	 viewBox="0 0 16.892 16.894" enable-background="new 0 0 16.892 16.894" xml:space="preserve">
<g id="Layer_3">
</g>
<g id="Layer_1">
</g>
<g id="Layer_2" fill="#a9a9a9">
	<path d="M15.728,1.231l-0.066-0.067c-1.553-1.553-4.094-1.553-5.647,0L6.416,4.763c-1.553,1.553-1.553,4.094,0,5.647l0.067,0.067
		c0.129,0.129,0.267,0.246,0.408,0.354l1.317-1.317c-0.154-0.091-0.299-0.2-0.431-0.332L7.71,9.116
		c-0.843-0.843-0.843-2.215,0-3.059l3.598-3.598c0.843-0.843,2.215-0.843,3.058,0l0.067,0.067c0.843,0.843,0.843,2.216,0,3.058
		l-1.628,1.628c0.283,0.698,0.417,1.441,0.405,2.184l2.518-2.517C17.28,5.325,17.28,2.784,15.728,1.231z M10.41,6.416
		c-0.129-0.129-0.267-0.246-0.408-0.354L8.685,7.379C8.838,7.47,8.984,7.579,9.116,7.711l0.066,0.067
		c0.843,0.843,0.843,2.215,0,3.058l-3.598,3.598c-0.843,0.843-2.215,0.843-3.058,0l-0.067-0.067c-0.843-0.843-0.843-2.215,0-3.058
		l1.628-1.628C3.805,8.983,3.671,8.24,3.682,7.497l-2.518,2.517c-1.553,1.553-1.553,4.094,0,5.648l0.067,0.067
		c1.553,1.553,4.094,1.553,5.648,0l3.598-3.598c1.553-1.553,1.553-4.094,0-5.647L10.41,6.416z"/>
</g>
<g id="orange-links" display="none">
</g>
</svg>
