<?xml version="1.0" encoding="utf-8"?>
<!-- Generator: Adobe Illustrator 17.1.0, SVG Export Plug-In . SVG Version: 6.00 Build 0)  -->
<!DOCTYPE svg PUBLIC "-//W3C//DTD SVG 1.1//EN" "http://www.w3.org/Graphics/SVG/1.1/DTD/svg11.dtd">
<svg version="1.1" xmlns="http://www.w3.org/2000/svg" xmlns:xlink="http://www.w3.org/1999/xlink" x="0px" y="0px"
	 viewBox="0 0 19.226 16.822" enable-background="new 0 0 19.226 16.822" xml:space="preserve">
<g id="Layer_3">
</g>
<g id="Layer_1">
</g>
<g id="Layer_2" fill="#F05B2D">
	<path opacity="0.85" d="M4.806,0h9.613v2.403H4.806V0z M18.024,3.605H1.202C0.541,3.605,0,4.146,0,4.806v6.008
		c0,0.661,0.541,1.202,1.202,1.202h3.605v4.806h9.613v-4.806h3.605c0.661,0,1.202-0.541,1.202-1.202V4.806
		C19.226,4.146,18.685,3.605,18.024,3.605z M13.218,15.621h-7.21V9.613h7.21V15.621z M18.294,5.407c0,0.481-0.39,0.871-0.871,0.871
		s-0.871-0.39-0.871-0.871s0.39-0.871,0.871-0.871S18.294,4.926,18.294,5.407z"/>
</g>
<g id="orange-links" display="none">
</g>
</svg>
