<?xml version="1.0" encoding="UTF-8"?>
<svg width="223px" height="96px" viewBox="0 0 223 96" version="1.1" xmlns="http://www.w3.org/2000/svg" xmlns:xlink="http://www.w3.org/1999/xlink">
    <!-- Generator: Sketch 50 (54983) - http://www.bohemiancoding.com/sketch -->
    <title>womb_logo</title>
    <desc>Created with Sketch.</desc>
    <defs></defs>
    <g id="Page-1" stroke="none" stroke-width="1" fill="none" fill-rule="evenodd">
        <g id="Desktop-HD-Copy" transform="translate(-609.000000, -467.000000)">
            <g id="womb_logo" transform="translate(609.000000, 467.000000)">
                <circle id="Oval" fill="#CEB99C" opacity="0.5" cx="111.5" cy="49.5" r="46.5"></circle>
                <path d="M59.67,35.19 C59.67,45.63 48.42,63.9 41.13,71.19 C40.23,72.18 39.33,72.81 37.98,72.81 C36.18,72.81 35.28,71.82 34.83,70.29 C32.49,63.09 30.69,55.89 29.52,48.69 C25.83,56.07 21.69,63.72 17.28,70.65 C16.47,71.91 15.39,72.9 13.86,72.9 C12.24,72.9 11.34,71.82 11.16,70.29 C10.44,63.63 9.63,57.24 8.1,50.04 C7.47,47.25 6.48,42.93 4.95,40.59 C4.14,39.15 2.97,37.89 1.17,37.89 C0.63,37.89 0,37.62 0,36.99 C0,36.54 0.27,36.18 0.63,36 C2.43,34.92 12.06,32.04 14.13,32.04 C15.21,32.04 15.66,32.31 16.11,33.3 C19.08,39.24 20.7,50.94 21.33,57.69 C24.57,52.2 27.45,46.35 30.06,40.5 C31.05,38.43 31.95,36.27 32.94,34.2 C33.48,32.94 34.2,31.77 35.73,31.77 C37.17,31.77 37.8,33.03 38.16,34.29 C38.79,37.26 39.33,40.23 39.96,43.2 C41.31,49.41 43.02,55.53 45.27,61.47 C49.14,58.05 51.75,52.92 51.75,47.7 C51.75,42.75 48.42,39.51 48.42,35.01 C48.42,31.59 50.49,28.71 54.09,28.71 C57.78,28.71 59.67,31.86 59.67,35.19 Z M88.62,45.63 C88.62,41.4 87.81,32.85 82.14,32.85 C73.32,32.85 70.89,51.39 70.89,57.69 C70.89,61.83 71.79,70.38 77.37,70.38 C86.19,70.38 88.62,51.93 88.62,45.63 Z M102.84,47.52 C102.84,62.55 89.79,72.81 75.48,72.81 C64.41,72.81 56.67,67.14 56.67,55.62 C56.67,40.59 69.72,30.42 84.12,30.42 C94.56,30.42 102.84,36.54 102.84,47.52 Z M176.575578,65.7047639 C176.158564,66.0770131 175.734049,66.4386227 175.35,66.78 C171.21,70.2 166.08,72.72 160.59,72.72 C156.63,72.72 154.2,70.74 154.2,66.69 C154.2,65.7 154.29,64.8 154.47,63.9 L158.88,41.49 C159.06,40.41 159.24,39.33 159.24,38.25 C159.24,37.08 158.97,35.73 157.44,35.73 C152.22,35.73 147.18,47.52 145.83,51.48 C144.84,54.36 144.03,57.24 143.4,60.12 C142.68,63.36 142.05,66.69 141.42,69.93 C141.24,71.01 140.7,71.64 139.53,71.64 L129.45,71.64 C128.64,71.64 128.01,71.19 128.01,70.29 C128.01,70.11 128.01,69.93 128.1,69.84 L133.77,41.49 C133.95,40.41 134.13,39.33 134.13,38.34 C134.13,37.08 133.86,35.73 132.33,35.73 C127.02,35.73 122.07,47.52 120.63,51.48 C119.64,54.36 118.83,57.24 118.2,60.12 C117.48,63.36 116.76,66.96 116.22,69.93 C115.95,71.01 115.5,71.64 114.24,71.64 L104.16,71.64 C103.35,71.64 102.72,71.19 102.72,70.29 C102.72,70.11 102.81,69.93 102.81,69.84 L108.12,43.47 C108.3,42.48 108.48,41.49 108.48,40.5 C108.48,36.81 106.32,36.81 103.35,36.81 C102.72,36.81 102.09,36.72 102.09,35.91 C102.09,35.37 102.45,35.1 102.9,34.92 C105.51,33.75 119.37,30.51 122.25,30.51 C123.15,30.51 123.78,30.96 123.78,31.95 C123.78,32.13 123.78,32.31 123.69,32.58 L121.53,43.56 C125.58,36.45 129.9,30.51 138.99,30.51 C143.94,30.51 147.72,32.22 147.72,37.71 C147.72,39.69 147.18,41.58 146.82,43.47 C150.69,36.27 155.1,30.51 164.1,30.51 C169.14,30.51 172.83,32.22 172.83,37.71 C172.83,38.88 172.65,39.96 172.47,41.04 L168.51,60.93 C168.42,61.47 168.33,62.1 168.33,62.64 C168.33,64.44 169.05,65.61 170.94,65.61 C173.757767,65.61 176.089473,62.6126218 177.243396,62.3053495 L186.91,12.87 C187.18,11.88 187.27,10.89 187.27,9.9 C187.27,6.21 185.2,6.21 182.23,6.21 C181.69,6.21 180.97,6.12 180.97,5.31 C180.97,4.86 181.33,4.59 181.78,4.32 C184.39,3.15 198.25,0 201.13,0 C202.03,0 202.66,0.45 202.66,1.35 C202.66,1.62 202.57,1.8 202.57,1.98 L195.28,38.88 C198.52,33.66 203.38,30.69 209.59,30.69 C218.41,30.69 222.82,36.18 222.82,44.64 C222.82,59.76 210.67,72.81 195.37,72.81 C190.33,72.81 182.59,71.64 178.09,69.03 C177.01,68.49 176.47,67.86 176.47,66.6 C176.47,66.2774437 176.516241,66.0011285 176.575578,65.7047639 Z M208.6,42.93 C208.6,39.78 208.15,35.19 204.01,35.19 C195.01,35.19 190.78,56.61 190.78,63.27 C190.78,66.51 191.41,70.2 195.46,70.2 C204.28,70.2 207.97,52.56 208.51,45.99 C208.51,45 208.6,43.92 208.6,42.93 Z" fill="#090C1D"></path>
            </g>
        </g>
    </g>
</svg>